<svg xmlns="http://www.w3.org/2000/svg" viewBox="0 0 24 24" fill="currentColor">
  <path d="M16.9337 8.965C16.426 5.0355 13.0675 2 9 2c-4.4183 0-8 3.5817-8 8 0 1.8924.657 3.6313 1.7555 5.0011.808 1.0076 1.2448 2.1241 1.2448 3.305L4 22h9l.001-3H15c1.1046 0 2-.8954 2-2v-2.929l1.9593-.8393c.3432-.147.3731-.495.2249-.728l-2.2505-3.5388ZM3 10c0-3.3137 2.6863-6 6-6 3.0243 0 5.5665 2.2514 5.9501 5.2212l.0571.4414 1.5425 2.4255L15 12.7519V17h-3.9983l-.001 3H6.0001l.0002-1.6937c0-1.6391-.5907-3.1923-1.6845-4.5564C3.4682 12.6929 3 11.3849 3 10Zm18.1535 8.1024-1.6642-1.1095C20.4436 15.5642 21 13.8471 21 12.0001c0-1.8471-.5564-3.5642-1.5107-4.9929l1.6642-1.1095C22.32 7.644 23 9.7425 23 12.0001c0 2.2575-.68 4.3561-1.8465 6.1023Z"/>
</svg>