<?xml version="1.0" standalone="no"?>
<!DOCTYPE svg PUBLIC "-//W3C//DTD SVG 20010904//EN"
 "http://www.w3.org/TR/2001/REC-SVG-20010904/DTD/svg10.dtd">
<svg version="1.0" xmlns="http://www.w3.org/2000/svg"
 width="500.000000pt" height="500.000000pt" viewBox="0 0 500.000000 500.000000"
 preserveAspectRatio="xMidYMid meet">
<metadata>
Created by potrace 1.14, written by Peter Selinger 2001-2017
</metadata>
<g transform="translate(0.000000,500.000000) scale(0.100000,-0.100000)"
fill="#000000" stroke="none">
<path d="M0 2500 l0 -2500 2500 0 2500 0 0 2500 0 2500 -2500 0 -2500 0 0
-2500z m2845 940 c128 -12 180 -26 274 -75 206 -108 319 -359 270 -597 -30
-147 -140 -292 -271 -357 -38 -19 -68 -35 -68 -37 0 -2 90 -172 200 -379 110
-207 200 -378 200 -380 0 -3 -148 -5 -328 -5 l-328 0 -162 333 -162 332 -110
3 -110 3 0 -336 0 -335 -295 0 -295 0 0 920 0 920 538 0 c295 0 587 -5 647
-10z"/>
<path d="M2250 2854 l0 -165 223 3 224 3 37 29 c49 37 70 86 63 149 -5 54 -28
91 -77 125 -32 21 -41 22 -251 22 l-219 0 0 -166z"/>
</g>
</svg>
