<svg xmlns="http://www.w3.org/2000/svg" fill="none" viewBox="0 0 58 62"><path fill="#f1f5f9" id="white-stroke" d="M0 0v62c3.455 0 4.008-.028 6.303 0 1.093.013 1.696-.363 2.654-.892.85-.468 1.338-.784 1.963-1.531.492-.59.705-.987.995-1.7l.025-.06c.269-.66.438-1.076.445-1.806.17-17.74 0-39.912 0-44.48h24.66c1.346 0 2.104.36 3.317.947 1.153.558 1.82.942 2.682 1.894.735.812 1.065 1.373 1.465 2.395.393 1.002.458 1.629.553 2.702.076.845.112 1.331 0 2.172-.11.827-.21 1.303-.553 2.062-.338.75-.63 1.128-1.16 1.754-.552.65-.907.99-1.604 1.476-.818.572-1.35.8-2.295 1.114-.888.296-1.424.336-2.35.474-1.881.281-5.087.223-5.087.223 1.3.501 4.722 1.692 7.105 3.565 2.42 1.9 4.037 4.623 5.17 5.96.095.112 1.757-.516 2.82-1.002 1.06-.486 1.65-.795 2.599-1.477.965-.693 1.444-1.173 2.267-2.033.862-.901 1.334-1.433 2.018-2.479.669-1.024.959-1.658 1.437-2.785.489-1.151.727-1.82 1.023-3.036.274-1.123.356-1.773.47-2.924.118-1.192.13-1.867.11-3.064-.02-1.32-.046-2.066-.248-3.37-.216-1.395-.399-2.176-.857-3.51-.462-1.343-.784-2.085-1.493-3.314-.768-1.332-1.27-2.059-2.322-3.175-1.057-1.121-1.762-1.654-3.041-2.507-1.377-.918-2.23-1.326-3.76-1.95-1.517-.618-2.404-.903-4.009-1.225C39.664.088 38.715 0 37.045 0H0Z"/><path fill="#00A6F4" d="M22.31 36.153c-1.77-2.396-3.4-4.652-5.695-8.05h10.367c1.605 0 2.52.063 4.091.39.854.178 1.333.296 2.157.585.844.297 1.296.525 2.1.92.818.4 1.275.63 2.047 1.113.763.478 1.208.761 1.907 1.33.613.5.91.81 1.465 1.372.546.55.828.883 1.327 1.476.994 1.18 1.45 1.922 2.35 3.175C49.568 47.1 49.568 47.1 58 62H45.366c-4.949-10.11-4.976-10.11-8.128-16.795-.922-1.461-1.335-2.368-2.46-3.677a16.119 16.119 0 0 0-1.631-1.671c-.697-.632-1.088-.999-1.88-1.504-.784-.5-1.27-.705-2.129-1.058-.996-.41-1.575-.606-2.626-.836-1.608-.351-2.627-.306-4.202-.306Z"/></svg>