<svg viewBox="0 0 156 44" fill="none" xmlns="http://www.w3.org/2000/svg">
<path d="M10.7945 42.7712H0V1.28488H19.0569C25.0539 1.28488 29.6737 2.46219 32.9165 4.81682C36.2037 7.13407 37.8473 10.4418 37.8473 14.7399C37.8473 17.4309 37.1588 19.7295 35.7817 21.6356C34.4491 23.5417 32.4057 25.0928 29.6515 26.2888L38.3138 42.7712H26.5198L19.1236 28.251H10.7945V42.7712ZM10.7945 9.35789V20.2901H18.9903C21.3447 20.2901 23.1659 19.8042 24.4542 18.8325C25.7868 17.8607 26.4532 16.4965 26.4532 14.7399C26.4532 12.9833 25.809 11.6565 24.5208 10.7595C23.277 9.82508 21.4557 9.35789 19.0569 9.35789H10.7945Z" fill="#F4F4F5"/>
<path d="M50.0375 43.5C46.5281 43.5 43.7296 42.6964 41.6417 41.0893C39.5983 39.4448 38.5766 37.2584 38.5766 34.53C38.5766 31.9511 39.6206 29.8955 41.7084 28.3631C43.8406 26.8307 46.9057 25.9337 50.9037 25.6721L60.2323 25.0554V24.6069C60.2323 23.6725 60.0101 22.9063 59.5659 22.3083C59.1217 21.673 58.4776 21.2058 57.6336 20.9068C56.834 20.5704 55.8123 20.4022 54.5685 20.4022C52.3918 20.4022 50.726 20.7386 49.571 21.4113C48.4605 22.0841 47.9052 23.0558 47.9052 24.3266H39.3762C39.3762 22.1962 40.0204 20.3462 41.3086 18.7764C42.5968 17.2066 44.4181 15.992 46.7725 15.1323C49.1712 14.2727 51.9476 13.8429 55.1015 13.8429C58.3443 13.8429 61.0763 14.3288 63.2974 15.3005C65.5629 16.2723 67.2731 17.6925 68.4281 19.5613C69.6274 21.43 70.2271 23.7099 70.2271 26.4009V42.7712H61.1651L60.4988 39.0711C59.9657 40.3418 58.6997 41.407 56.7007 42.2666C54.7462 43.0889 52.5251 43.5 50.0375 43.5ZM53.6356 37.1089C55.5902 37.1089 57.1894 36.7164 58.4332 35.9316C59.677 35.1093 60.2989 33.8946 60.2989 32.2875V30.7738L55.1015 31.1662C52.8805 31.3157 51.3035 31.6334 50.3706 32.1193C49.4822 32.5678 49.038 33.2406 49.038 34.1376C49.038 35.1467 49.4156 35.8942 50.1707 36.3801C50.9259 36.8659 52.0809 37.1089 53.6356 37.1089Z" fill="#F4F4F5"/>
<path d="M84.5167 42.7712H74.2553V0.5H84.5167V24.8312L95.3112 14.7399H108.171L95.6444 25.8403L107.772 42.7712H95.9109L88.448 32.2875L84.5167 35.7634V42.7712Z" fill="#F4F4F5"/>
<path d="M109.055 42.7712V14.7399H119.317V42.7712H109.055ZM114.119 10.367C112.476 10.367 111.076 9.89983 109.921 8.96545C108.811 7.9937 108.256 6.81638 108.256 5.43351C108.256 4.05063 108.811 2.892 109.921 1.95763C111.076 1.02325 112.476 0.556062 114.119 0.556062C115.718 0.556062 117.073 1.02325 118.184 1.95763C119.339 2.892 119.916 4.05063 119.916 5.43351C119.916 6.81638 119.339 7.9937 118.184 8.96545C117.073 9.89983 115.718 10.367 114.119 10.367Z" fill="#F4F4F5"/>
<path d="M121.884 28.6434C121.884 25.7655 122.617 23.224 124.083 21.0189C125.549 18.7764 127.548 17.0198 130.08 15.749C132.656 14.4783 135.61 13.8429 138.942 13.8429C143.873 13.8429 147.871 14.9081 150.936 17.0385C154.001 19.1688 155.689 22.0654 156 25.7282H145.672C145.317 24.3079 144.606 23.2614 143.54 22.5887C142.518 21.9159 141.119 21.5795 139.342 21.5795C137.92 21.5795 136.654 21.8785 135.544 22.4765C134.478 23.0372 133.656 23.8407 133.078 24.8872C132.501 25.9337 132.212 27.1858 132.212 28.6434C132.212 30.1384 132.479 31.4279 133.012 32.5117C133.589 33.5582 134.389 34.3618 135.411 34.9224C136.477 35.4831 137.743 35.7634 139.209 35.7634C141.03 35.7634 142.474 35.427 143.54 34.7542C144.65 34.0441 145.361 32.9976 145.672 31.6147H156C155.778 33.9694 154.912 36.0437 153.401 37.8377C151.935 39.5943 149.981 40.9772 147.538 41.9863C145.094 42.9954 142.318 43.5 139.209 43.5C135.699 43.5 132.634 42.8833 130.013 41.6499C127.437 40.4166 125.438 38.6973 124.016 36.4922C122.595 34.2497 121.884 31.6334 121.884 28.6434ZM150.07 2.01369L142.673 11.3201H135.277L140.874 2.01369H150.07Z" fill="#F4F4F5"/>
</svg>
