<svg xmlns="http://www.w3.org/2000/svg" id="Layer_1" data-name="Layer 1" viewBox="0 0 58 62"><defs><style>.cls-1{fill:#00a6f4}.cls-2{fill:#f1f5f9}</style></defs><path id="white-stroke" d="M0,0v62c3.45,0,4.01-.03,6.3,0,1.09.01,1.7-.36,2.65-.89.85-.47,1.34-.78,1.96-1.53.49-.59.7-.99.99-1.7l.02-.06c.27-.66.44-1.08.44-1.81.17-17.74,0-39.91,0-44.48h24.66c1.35,0,2.1.36,3.32.95,1.15.56,1.82.94,2.68,1.89.74.81,1.06,1.37,1.47,2.39.39,1,.46,1.63.55,2.7.08.84.11,1.33,0,2.17-.11.83-.21,1.3-.55,2.06-.34.75-.63,1.13-1.16,1.75-.55.65-.91.99-1.6,1.48-.82.57-1.35.8-2.3,1.11-.89.3-1.42.34-2.35.47-1.88.28-5.09.22-5.09.22,1.3.5,4.72,1.69,7.1,3.56,2.42,1.9,4.04,4.62,5.17,5.96.1.11,1.76-.52,2.82-1,1.06-.49,1.65-.79,2.6-1.48.97-.69,1.44-1.17,2.27-2.03.86-.9,1.33-1.43,2.02-2.48.67-1.02.96-1.66,1.44-2.78.49-1.15.73-1.82,1.02-3.04.27-1.12.36-1.77.47-2.92.12-1.19.13-1.87.11-3.06-.02-1.32-.05-2.07-.25-3.37-.22-1.4-.4-2.18-.86-3.51-.46-1.34-.78-2.09-1.49-3.31-.77-1.33-1.27-2.06-2.32-3.18-1.06-1.12-1.76-1.65-3.04-2.51-1.38-.92-2.23-1.33-3.76-1.95-1.52-.62-2.4-.9-4.01-1.23-1.64-.33-2.59-.42-4.26-.42H0Z" class="cls-2"/><path d="M22.31,36.15c-1.77-2.4-3.4-4.65-5.69-8.05h10.37c1.6,0,2.52.06,4.09.39.85.18,1.33.3,2.16.58.84.3,1.3.52,2.1.92.82.4,1.28.63,2.05,1.11.76.48,1.21.76,1.91,1.33.61.5.91.81,1.47,1.37.55.55.83.88,1.33,1.48.99,1.18,1.45,1.92,2.35,3.17q5.14,8.64,13.57,23.54h-12.63q-4.95-10.11-8.13-16.79c-.92-1.46-1.33-2.37-2.46-3.68-.5-.6-1.05-1.15-1.63-1.67-.7-.63-1.09-1-1.88-1.5-.78-.5-1.27-.71-2.13-1.06-1-.41-1.58-.61-2.63-.84-1.61-.35-2.63-.31-4.2-.31Z" class="cls-1"/></svg>